Coordinates
version=1
nRows=24
nColumns=24
inDegrees=yes

Units are S.I. units (second, meters, Newtons, ...)
Angles are in degrees.

endheader
time	pelvis_tilt	pelvis_list	pelvis_rotation	pelvis_tx	pelvis_ty	pelvis_tz	hip_flexion_r	hip_adduction_r	hip_rotation_r	knee_angle_r	ankle_angle_r	subtalar_angle_r	mtp_angle_r	hip_flexion_l	hip_adduction_l	hip_rotation_l	knee_angle_l	ankle_angle_l	subtalar_angle_l	mtp_angle_l	lumbar_extension	lumbar_bending	lumbar_rotation
      1.71233333	      3.04533826	      0.21863745	     -5.79405975	      1.34468592	      1.02413870	      0.29526920	     20.33225725	     -3.06664425	     -6.13642510	    -70.50584180	      1.04500595	    -10.41377559	     -5.06655534	      5.83588029	      1.78497215	     -3.47223499	    -13.39084110	      1.14725288	    -18.34333595	    -12.63621591	    -11.80276676	     -3.57858928	      1.05294318
      1.71650000	      3.17878193	      0.04116412	     -5.44370030	      1.34961109	      1.02520729	      0.29433385	     20.63821631	     -2.97294151	     -6.57084370	    -69.90731820	      1.46826087	    -10.43621334	     -5.03797933	      5.22459211	      1.70657974	     -3.18552600	    -13.04280420	      1.15914901	    -18.30794949	    -12.62354195	    -12.01800616	     -3.24536638	      0.79506842
      1.72066667	      3.28984697	     -0.14986497	     -5.11748432	      1.35449332	      1.02621651	      0.29350265	     20.95789519	     -2.84805892	     -6.98130386	    -69.25926301	      1.86645728	    -10.46476808	     -5.02874352	      4.63935759	      1.59507123	     -2.92005778	    -12.70020823	      1.17187780	    -18.24993775	    -12.60845643	    -12.21811577	     -2.90477561	      0.55921527
      1.72483333	      3.39365978	     -0.32435838	     -4.75167440	      1.35938818	      1.02716275	      0.29255971	     21.26810308	     -2.77615843	     -7.43956034	    -68.57841400	      2.25298109	    -10.49438703	     -5.03472362	      4.08136777	      1.50133778	     -2.62908842	    -12.38199819	      1.20427760	    -18.19174026	    -12.58902293	    -12.39051503	     -2.56352694	      0.27556749
      1.72900000	      3.49901229	     -0.47670718	     -4.43029792	      1.36423015	      1.02805510	      0.29172866	     21.58215194	     -2.71147106	     -7.84351053	    -67.87462302	      2.65503127	    -10.48955381	     -5.05451695	      3.51501970	      1.42080545	     -2.36495168	    -12.04767066	      1.21371894	    -18.16718774	    -12.56828927	    -12.56791877	     -2.25932495	      0.03126845
      1.73316667	      3.59100992	     -0.64640479	     -4.10592141	      1.36909822	      1.02891004	      0.29093136	     21.88406968	     -2.62919971	     -8.25577472	    -67.11255937	      3.01738634	    -10.50592404	     -5.08506474	      2.97146421	      1.30695123	     -2.13494543	    -11.72483617	      1.24090666	    -18.09646170	    -12.54320698	    -12.71980243	     -1.93773326	     -0.17683901
      1.73733333	      3.67224953	     -0.79194728	     -3.79893115	      1.37388778	      1.02967832	      0.29017084	     22.19685973	     -2.57164419	     -8.64215751	    -66.33172802	      3.40389380	    -10.48425145	     -5.12554334	      2.45042420	      1.21348897	     -1.89229397	    -11.42237367	      1.27413257	    -18.04124875	    -12.51664328	    -12.87238464	     -1.64312047	     -0.38222745
      1.74150000	      3.75862281	     -0.92549447	     -3.51039404	      1.37872392	      1.03041258	      0.28945183	     22.49395423	     -2.52597652	     -9.00980347	    -65.51572495	      3.76381250	    -10.45155780	     -5.17776298	      1.91668046	      1.12621896	     -1.67629057	    -11.10717855	      1.30921637	    -17.98107648	    -12.48410025	    -13.01774778	     -1.35669868	     -0.59086351
      1.74566667	      3.85092867	     -1.05694022	     -3.18490900	      1.38345951	      1.03112478	      0.28868492	     22.76186719	     -2.50143099	     -9.41200422	    -64.65201069	      4.13490280	    -10.43851099	     -5.25711875	      1.39727820	      1.03719046	     -1.41572111	    -10.81503688	      1.33923079	    -17.93149456	    -12.44009824	    -13.18258002	     -1.08320040	     -0.82041173
      1.74983333	      3.88918141	     -1.16472773	     -2.92708775	      1.38822848	      1.03168870	      0.28807521	     23.09491530	     -2.46999914	     -9.73432968	    -63.77263412	      4.48885506	    -10.37126457	     -5.33910237	      0.93107391	      0.95910698	     -1.22005017	    -10.51847845	      1.37095532	    -17.87575905	    -12.39781319	    -13.26814759	     -0.83999096	     -0.96760536
      1.75400000	      3.84667549	     -1.21599401	     -2.76870623	      1.39299258	      1.03201774	      0.28775425	     23.53984515	     -2.44007004	     -9.93126021	    -62.91332209	      4.87344775	    -10.34394606	     -5.36398532	      0.56041251	      0.91814058	     -1.18157502	    -10.24587783	      1.37895638	    -17.81119049	    -12.38287354	    -13.25096490	     -0.68240063	     -1.01181262
      1.75816667	      3.96175793	     -1.36566732	     -2.44039469	      1.39772616	      1.03268044	      0.28698231	     23.71733135	     -2.41524210	    -10.33805963	    -61.90060316	      5.15531328	    -10.20860028	     -5.46390265	      0.02422087	      0.79562774	     -0.90745268	     -9.97075147	      1.49682404	    -17.69238482	    -12.32951234	    -13.43968169	     -0.37563605	     -1.24278427
      1.76233333	      3.99156735	     -1.44072181	     -2.18993184	      1.40244511	      1.03309159	      0.28641806	     24.01568931	     -2.42819128	    -10.64589147	    -60.92153655	      5.48386626	    -10.13835024	     -5.57865181	     -0.41182314	      0.73839417	     -0.73642558	     -9.70815049	      1.53598617	    -17.64832197	    -12.26813109	    -13.51188713	     -0.15906611	     -1.39284146
      1.76650000	      3.91855525	     -1.47122634	     -2.07165703	      1.40718797	      1.03326468	      0.28622598	     24.44902631	     -2.40436862	    -10.78546693	    -59.94366179	      5.81789556	    -10.05636263	     -5.60815935	     -0.74446944	      0.70756413	     -0.71248667	     -9.45105531	      1.56676119	    -17.58532706	    -12.25142841	    -13.45566203	     -0.04859062	     -1.41547247
      1.77066667	      3.97312586	     -1.55152196	     -1.78812030	      1.41186352	      1.03364565	      0.28563008	     24.67745380	     -2.42960788	    -11.11701437	    -58.87283470	      6.08816116	     -9.95823293	     -5.74779332	     -1.18640431	      0.63521977	     -0.51577720	     -9.22382983	      1.69833807	    -17.43568696	    -12.17650833	    -13.56788162	      0.17783200	     -1.61581865
      1.77483333	      3.87706416	     -1.55624029	     -1.67723236	      1.41656796	      1.03369432	      0.28547325	     25.10841913	     -2.43252514	    -11.23447060	    -57.83088087	      6.37093230	     -9.86332004	     -5.77867938	     -1.48718878	      0.62723909	     -0.49171806	     -8.97298023	      1.74068546	    -17.37277536	    -12.15884491	    -13.49284000	      0.25989284	     -1.61648768
      1.77900000	      3.91266113	     -1.61470934	     -1.44115856	      1.42127068	      1.03395945	      0.28501567	     25.32765507	     -2.45697920	    -11.50900929	    -56.69490602	      6.62329461	     -9.76579542	     -5.91055317	     -1.90516113	      0.56696156	     -0.35670381	     -8.76209306	      1.89709911	    -17.20125821	    -12.09066989	    -13.57499567	      0.44381741	     -1.74386834
      1.78316667	      3.81361410	     -1.59623773	     -1.33986722	      1.42596187	      1.03391156	      0.28489884	     25.73281530	     -2.48160400	    -11.60639636	    -55.58795174	      6.87977580	     -9.68051586	     -5.94328078	     -2.19973936	      0.58018873	     -0.33906163	     -8.51721046	      1.94830625	    -17.13860887	    -12.07194532	    -13.49677990	      0.49743181	     -1.75217609
      1.78733333	      3.79365666	     -1.60888670	     -1.14433919	      1.43065501	      1.03397302	      0.28453991	     25.99954936	     -2.53744000	    -11.82416365	    -54.41243878	      7.08446576	     -9.56485145	     -6.02870426	     -2.55237267	      0.56326122	     -0.25112005	     -8.32612065	      2.12231013	    -16.98634653	    -12.02613473	    -13.50390679	      0.62383394	     -1.81052746
      1.79150000	      3.69935297	     -1.57495440	     -1.05547819	      1.43534826	      1.03385482	      0.28450054	     26.36256960	     -2.56366500	    -11.89142703	    -53.23414687	      7.33145331	     -9.52311302	     -6.06249627	     -2.84960195	      0.58760185	     -0.23478594	     -8.08880037	      2.19366418	    -16.90195879	    -12.00802765	    -13.44660566	      0.65064082	     -1.85068300
      1.79566667	      3.61227128	     -1.55223652	     -0.91442159	      1.44001614	      1.03372327	      0.28434235	     26.68265317	     -2.60988411	    -12.01703792	    -52.00824119	      7.54004578	     -9.45955829	     -6.10534818	     -3.13356506	      0.59802100	     -0.19724989	     -7.88602425	      2.31190278	    -16.76924642	    -11.98496600	    -13.37862263	      0.71056679	     -1.87998236
      1.79983333	      3.54563213	     -1.53852299	     -0.75455083	      1.44472229	      1.03359990	      0.28413373	     26.95171574	     -2.65993508	    -12.17065432	    -50.72954791	      7.71834383	     -9.40553917	     -6.16514272	     -3.42748550	      0.59822665	     -0.15238682	     -7.71618673	      2.48308335	    -16.61200587	    -11.95303911	    -13.33239413	      0.79212879	     -1.93711271
      1.80400000	      3.47968979	     -1.49405556	     -0.62864937	      1.44941219	      1.03341453	      0.28402764	     27.21607787	     -2.72211978	    -12.27857668	    -49.44480243	      7.89478219	     -9.37346749	     -6.22411585	     -3.74305839	      0.62959508	     -0.11982018	     -7.50204307	      2.62273482	    -16.47653090	    -11.92325096	    -13.30324957	      0.81579649	     -1.99964854
      1.80816667	      3.40927208	     -1.43912783	     -0.51335169	      1.45406405	      1.03317761	      0.28394575	     27.46842258	     -2.78382346	    -12.35784729	    -48.12222794	      8.07104820	     -9.33868435	     -6.27588937	     -4.03814770	      0.67206107	     -0.09686770	     -7.32274552	      2.77699949	    -16.34928047	    -11.89711371	    -13.25663104	      0.83894945	     -2.03078159
